inDegrees=yes
name=ik_S51_A12_T02
DataType=double
version=3
OpenSimVersion=4.3-2021-08-27-4bc7ad9
endheader
time	pelvis_tilt	pelvis_list	pelvis_rotation	pelvis_tx	pelvis_ty	pelvis_tz	hip_flexion_r	hip_adduction_r	hip_rotation_r	knee_angle_r	knee_angle_r_beta	ankle_angle_r	subtalar_angle_r	mtp_angle_r	hip_flexion_l	hip_adduction_l	hip_rotation_l	knee_angle_l	knee_angle_l_beta	ankle_angle_l	subtalar_angle_l	mtp_angle_l	lumbar_extension	lumbar_bending	lumbar_rotation	arm_flex_r	arm_add_r	arm_rot_r	elbow_flex_r	pro_sup_r	wrist_flex_r	wrist_dev_r	arm_flex_l	arm_add_l	arm_rot_l	elbow_flex_l	pro_sup_l	wrist_flex_l	wrist_dev_l
0	0	0	0	0	0.9399999999999999	0	0	0	0	0	0	0	0	0	0	0	0	0	0	0	0	0	0	0	0	0	0	0	0	89.99999999963507	0	0	0	0	0	0	89.99999999869995	0	0
0.02	0.1488738684938606	0.6412848072585711	31.69021237873307	0	0.9399999999999999	0	2.156154671473532	-1.030414824899789	-0.7260089868345029	3.339582091488734	0.0582867031371169	0	0	0	2.156154671473532	-1.030414824899789	-0.7260089868345029	3.339582091488734	0.0582867031371169	0	0	0	1.053661224701997	0.2236692052113035	14.28194839372025	0.01934855162095089	-4.793583794568652	-13.86228823248763	5.000921202247911	145.5915973726077	0	0	4.531238596220449	-5.123164712948065	-6.528224087733891	6.346697381765987	144.7359860261539	0	0
0.04	0.1528030637864201	0.6412973321783284	31.70696684458633	0	0.9399999999999999	0	2.254932529366129	-1.076154559490325	-0.7623525547551913	3.424178093600558	0.05976318190799231	0	0	0	2.254932529366129	-1.076154559490325	-0.7623525547551913	3.424178093600558	0.05976318190799231	0	0	0	1.055684439955088	0.2225702845717141	14.2707994333965	0.0001318573332651743	-4.788991606417215	-13.83910886376995	5.052415849150703	145.5910272728058	0	0	4.47618898016324	-5.126591912487369	-6.521802040822657	6.380061742143259	144.7303802723885	0	0
0.06	0.1555730678756756	0.6397035587487671	31.73696502273509	0	0.9399999999999999	0	2.363464983633258	-1.122612823022351	-0.8028970758344235	3.491193556403553	0.06093282238365237	0	0	0	2.363464983633258	-1.122612823022351	-0.8028970758344235	3.491193556403553	0.06093282238365237	0	0	0	1.056491156710984	0.2204664268243314	14.25509318042669	-0.002189356575448238	-4.770630316753689	-13.86657191360534	4.996270362669543	145.6651243369822	0	0	4.479993063406235	-5.109175788082824	-6.502173282147623	6.336647696494812	144.800371666097	0	0
0.08	0.1613644146163492	0.6385863589667716	31.93739181212402	0	0.9399999999999999	0	3.806486059669605	-1.790074800640914	-1.31971717001749	5.015915516569603	0.08754424076601176	0	0	0	3.806486059669605	-1.790074800640914	-1.31971717001749	5.015915516569603	0.08754424076601176	0	0	0	1.041849259355805	0.2174006780828755	14.06576579498051	-0.02292615865297068	-4.783267695115316	-13.84366165264711	5.082448013578328	145.6319343242344	0	0	4.481303277106102	-5.119669426524857	-6.506985204288589	6.367072883399712	144.8359733244637	0	0
0.1	0.1570617679674221	0.6354108674994574	32.13152586420761	0	0.9399999999999999	0	5.066959749876745	-2.354896183577444	-1.762344672799045	6.310276767418151	0.1101351063035512	0	0	0	5.066959749876745	-2.354896183577444	-1.762344672799045	6.310276767418151	0.1101351063035512	0	0	0	1.034250322468944	0.201277949427776	13.89304379625671	0.008317796254207878	-4.771180919304107	-13.83374031946463	5.074572574977477	145.6212757015624	0	0	4.479477689638596	-5.125859234704412	-6.485919094499482	6.404361049758969	144.804097973383	0	0
0.12	0.1596054455750863	0.6362721915253963	32.29527166115385	0	0.9399999999999999	0	6.232899043903439	-2.849867400197113	-2.164357980936129	7.459320554855943	0.1301897036439265	0	0	0	6.232899043903439	-2.849867400197113	-2.164357980936129	7.459320554855943	0.1301897036439265	0	0	0	1.028983754971126	0.1984797508088027	13.72898741029655	-0.001423257582726086	-4.768587498811253	-13.81011997228101	5.073149937028354	145.6329176375005	0	0	4.485413836137393	-5.122419720801478	-6.502072365250116	6.370576224843434	144.8143706489254	0	0
0.14	0.159985311357651	0.6355369788819027	32.41732137737256	0	0.9399999999999999	0	7.118561730350754	-3.209041122435035	-2.464053036331202	8.318578305317912	0.1451865805127677	0	0	0	7.118561730350754	-3.209041122435035	-2.464053036331202	8.318578305317912	0.1451865805127677	0	0	0	1.022621821387471	0.1954382037836765	13.61861804968539	-0.004448484145483972	-4.769008821097252	-13.80202487911678	5.098757578636569	145.6085473506211	0	0	4.457433779421619	-5.117609667679137	-6.507598936738008	6.390521661174998	144.7542930309782	0	0
0.16	0.1591817457457379	0.6372815820328103	32.55652751217099	0	0.9399999999999999	0	7.921620953002533	-3.526413573150577	-2.731822829286218	9.103941054269212	0.1588937463044815	0	0	0	7.921620953002533	-3.526413573150577	-2.731822829286218	9.103941054269212	0.1588937463044815	0	0	0	1.016523517226933	0.1812670273028522	13.49999167773164	0.0007296988784589925	-4.763860420182926	-13.81210192359409	5.071280031147554	145.6304877150483	0	0	4.454714777094791	-5.129339143827394	-6.511176505231261	6.345617449631763	144.7262647977109	0	0
0.18	0.1547622105124561	0.6322729660102429	32.68421256242023	0	0.9399999999999999	0	8.714878645236995	-3.843050604614114	-2.994642532516574	9.903885310095125	0.1728554074010595	0	0	0	8.714878645236995	-3.843050604614114	-2.994642532516574	9.903885310095125	0.1728554074010595	0	0	0	1.001979034485041	0.181162477324321	13.37678924419099	-0.003150538861139366	-4.770519576779236	-13.7810871447904	5.13450480287802	145.5907475595685	0	0	4.484106056250003	-5.123828133040651	-6.544148142932098	6.367466046641288	144.7114190289109	0	0
0.2	0.1586370483857707	0.6293485030079888	32.8037727343472	0	0.9399999999999999	0	9.408843685700797	-4.105515835889179	-3.220326427413534	10.59171358323473	0.1848602754556526	0	0	0	9.408843685700797	-4.105515835889179	-3.220326427413534	10.59171358323473	0.1848602754556526	0	0	0	0.9970040291061343	0.174149312112775	13.25938890520054	0.009974064145789918	-4.763412191418951	-13.78871035346269	5.109919871129026	145.619124462202	0	0	4.474414622504447	-5.129997397912681	-6.566152063204384	6.387609695165989	144.6805572622694	0	0
0.22	0.165460723120479	0.627278966554248	32.92418433894557	0	0.9399999999999999	0	10.01815512192404	-4.341085024260664	-3.418266739538689	11.21192359366162	0.1956849821914301	0	0	0	10.01815512192404	-4.341085024260664	-3.418266739538689	11.21192359366162	0.1956849821914301	0	0	0	0.9951047610651462	0.1700742352081092	13.14846450523698	0.01994199810385487	-4.758020926955289	-13.77773188308456	5.119375617420024	145.6147623176549	0	0	4.484775120619305	-5.141410651402966	-6.564740690508101	6.350653556450794	144.698136091106	0	0
